{"title":"Tabu.2012.DVDRip.AC3.HORiZON-ArtSubs","uid":7884245,"size":1465606564,"categoryP":"video","categoryS":"movies","magnet":"?xt=urn:btih:04b783c779983f0434d49ab0e9d2676b5cbbadae&amp;dn=Tabu.2012.DVDRip.AC3.HORiZON-ArtSubs&amp;tr=udp%3A%2F%2Ftracker.openbittorrent.com%3A80&amp;tr=udp%3A%2F%2Fopen.demonii.com%3A1337&amp;tr=udp%3A%2F%2Ftracker.coppersurfer.tk%3A6969&amp;tr=udp%3A%2F%2Fexodus.desync.com%3A6969","seeders":2,"leechers":0,"uploader":"lletaif","files":2,"time":1354574786,"description":"Director: Miguel Gomes\n\nWriters: Miguel Gomes , Mariana Ricardo\n\nStars: Teresa Madruga, Laura Soveral and Ana Moreira \n\nPlot: A temperamental old woman, her Cape Verdean maid and a neighbor devoted to social causes live on the same floor of a Lisbon apartment building. When the old lady dies, the other two learn of an episode from her past: a tale of love and crime set in an Africa straight from the world of adventure films.\n\nTabu won the Alfred Bauer and the International Critique award (Fipresci) at the Berlin Film Festival 2012.\n\nImdb:  &lt;a href=&quot;\nhttp://www.imdb.com/title/tt2153963/&quot; rel=&quot;nofollow&quot; target=&quot;_NEW&quot;&gt;\nhttp://www.imdb.com/title/tt2153963/&lt;/a&gt;\n\nLanguage: Portugese\n\nSubtitle: Portugese for english parts\n\nRip Specs:\n\nGeneral\nComplete name                    : Tabu.2012.DVDRip.AC3.HORiZON-ArtSubs.avi\nFormat                           : AVI\nFormat/Info                      : Audio Video Interleave\nFile size                        : 1.36 GiB\nDuration                         : 1h 40mn\nOverall bit rate                 : 1 949 Kbps\nWriting application              : FairUse Wizard - http://fairusewizard.com\nWriting library                  : The best and REALLY easy backup tool\n\nVideo\nID                               : 0\nFormat                           : MPEG-4 Visual\nFormat profile                   : Advanced Simple@L5\nFormat settings, BVOP            : 1\nFormat settings, QPel            : No\nFormat settings, GMC             : No warppoints\nFormat settings, Matrix          : Default (MPEG)\nMuxing mode                      : Packed bitstream\nCodec ID                         : XVID\nCodec ID/Hint                    : XviD\nDuration                         : 1h 40mn\nBit rate                         : 1 747 Kbps\nWidth                            : 704 pixels\nHeight                           : 512 pixels\nDisplay aspect ratio             : 1.375\nFrame rate                       : 25.000 fps\nColor space                      : YUV\nChroma subsampling               : 4:2:0\nBit depth                        : 8 bits\nScan type                        : Progressive\nCompression mode                 : Lossy\nBits/(Pixel*Frame)               : 0.194\nStream size                      : 1.22 GiB (90%)\nWriting library                  : XviD 1.2.0.dev47 (UTC 2006-11-01)\n\nAudio\nID                               : 1\nFormat                           : AC-3\nFormat/Info                      : Audio Coding 3\nMode extension                   : CM (complete main)\nCodec ID                         : 2000\nDuration                         : 1h 40mn\nBit rate mode                    : Constant\nBit rate                         : 192 Kbps\nChannel(s)                       : 2 channels\nChannel positions                : Front: L R\nSampling rate                    : 48.0 KHz\nBit depth                        : 16 bits\nCompression mode                 : Lossy\nStream size                      : 138 MiB (10%)\nAlignment                        : Split accross interleaves\nInterleave, duration             : 40 ms (1.00 video frame)\nInterleave, preload duration     : 500 ms\n\n","torrent":{"xt":"urn:btih:04b783c779983f0434d49ab0e9d2676b5cbbadae","amp;dn":"Tabu.2012.DVDRip.AC3.HORiZON-ArtSubs","amp;tr":["udp%3A%2F%2Ftracker.openbittorrent.com%3A80","udp%3A%2F%2Fopen.demonii.com%3A1337","udp%3A%2F%2Ftracker.coppersurfer.tk%3A6969","udp%3A%2F%2Fexodus.desync.com%3A6969"],"infoHash":"04b783c779983f0434d49ab0e9d2676b5cbbadae","infoHashBuffer":{"type":"Buffer","data":[4,183,131,199,121,152,63,4,52,212,154,176,233,210,103,107,92,187,173,174]},"announce":[],"urlList":[]}}